<svg xmlns="http://www.w3.org/2000/svg" viewBox="0 0 64 64">
  <rect width="64" height="64" rx="18" fill="#0f172a"/>
  <path d="M14 29h36v18a5 5 0 0 1-5 5H19a5 5 0 0 1-5-5V29Z" fill="#1e1b4b" stroke="#f8d66d" stroke-width="3"/>
  <path d="M18 18h28a5 5 0 0 1 5 5v8H13v-8a5 5 0 0 1 5-5Z" fill="#312e81" stroke="#f8d66d" stroke-width="3"/>
  <path d="M20 34h24" stroke="#f8d66d" stroke-width="2" stroke-linecap="round"/>
  <circle cx="32" cy="41" r="7" fill="#fff7cc" stroke="#f8d66d" stroke-width="2"/>
  <path d="M32 35.5 35.5 41 32 46.5 28.5 41 32 35.5Z" fill="#4f46e5"/>
  <path d="M49 13v6M46 16h6M16 12v4M14 14h4" stroke="#93c5fd" stroke-width="2" stroke-linecap="round"/>
  <circle cx="50" cy="44" r="2.5" fill="#93c5fd"/>
</svg>
